<svg width="373" height="489" fill="none" xmlns="http://www.w3.org/2000/svg"><mask id="a" maskUnits="userSpaceOnUse" x="0" y="227" width="262" height="262"><path fill="#FF5722" stroke="#FF5722" d="M.5 227.982h261v260.517H.5z"/></mask><g mask="url(#a)" stroke="#FF5722" stroke-width="2"><path d="M-138.28 336.999l244.195 290.484M-111.52 314.585L132.675 605.07M-84.76 292.172l244.196 290.485M-57.999 269.759l244.195 290.484M-31.238 247.344l244.195 290.485M-4.478 224.932l244.195 290.484M22.283 202.518l244.195 290.484M49.043 180.105l244.195 290.484M75.804 157.692l244.195 290.484M102.564 135.279l244.195 290.484M129.325 112.866L373.52 403.35M156.085 90.451L400.28 380.935"/></g><g opacity=".7"><mask id="b" maskUnits="userSpaceOnUse" x="111" y="0" width="262" height="263"><path fill="#FF5722" stroke="#FF5722" d="M111.5 1.4h261v260.517h-261z"/></mask><g mask="url(#b)" stroke="#FF5722" stroke-width="2"><path d="M-27.28 110.417l244.195 290.485M-.52 88.003l244.195 290.485M26.24 65.59l244.196 290.484M53.001 43.177L297.196 333.66M79.762 20.762l244.195 290.485M106.522-1.651l244.195 290.484M133.282-24.064L377.477 266.42M160.043-46.477l244.195 290.484M186.803-68.89l244.195 290.484M213.564-91.304l244.195 290.485M240.324-113.717l244.195 290.485M267.085-136.131L511.28 154.353"/></g></g></svg>